<svg viewBox="0 0 679 192" fill="none" xmlns="http://www.w3.org/2000/svg">
<path fill-rule="evenodd" clip-rule="evenodd" d="M20.5277 3.65565C38.6252 -5.10807 60.4163 2.42511 69.2 20.4816L94.6811 72.8637L120.576 20.3154C129.451 2.30376 151.28 -5.11865 169.333 3.73683C187.385 12.5922 194.824 34.3722 185.949 52.3839L127.157 171.693C121.016 184.154 108.295 192.035 94.3774 192C80.4603 191.964 67.7792 184.019 61.7022 171.527L3.66388 52.2177C-5.11956 34.1613 2.43056 12.4194 20.5277 3.65565ZM280.872 0.00840167C294.788 0.0437417 307.47 7.989 313.548 20.4816L371.584 139.79C377.064 151.053 376.346 164.336 369.688 174.946C363.028 185.556 351.364 192 338.818 192H221.987C209.406 192 197.717 185.523 191.067 174.868C184.417 164.213 183.749 150.889 189.3 139.625L248.092 20.3154C254.232 7.854 266.955 -0.0269383 280.872 0.00840167ZM413.727 36.3495C413.727 16.2789 430.032 0.00828151 450.15 0.00828151H501.694C502.703 0.00828151 503.716 0.0503109 504.722 0.134281L519.21 1.34115C523.56 1.70358 531.263 2.74014 539.363 7.0134C581.551 29.2665 581.551 90.059 539.363 112.313C531.263 116.585 523.56 117.622 519.21 117.985L504.722 119.191C503.716 119.275 502.703 119.317 501.694 119.317H486.573V155.659C486.573 175.729 470.265 192 450.15 192C430.032 192 413.727 175.729 413.727 155.659V36.3495ZM642.577 0.00828151C662.692 0.00828151 679 16.2789 679 36.3495V155.659C679 175.729 662.692 192 642.577 192C622.46 192 606.152 175.729 606.152 155.659V36.3495C606.152 16.2789 622.46 0.00828151 642.577 0.00828151ZM280.481 119.317H280.652L280.568 119.145L280.481 119.317Z" fill="#FFFAEB"/>
</svg>
